<svg width="68" height="68" viewBox="0 0 68 68" fill="none" xmlns="http://www.w3.org/2000/svg">
<path d="M33.6435 0C40.2975 0 46.8022 1.97316 52.3348 5.66995C57.8674 9.36674 62.1796 14.6211 64.726 20.7687C67.2724 26.9162 67.9387 33.6808 66.6405 40.207C65.3424 46.7332 62.1381 52.7279 57.433 57.433C52.7279 62.1381 46.7332 65.3424 40.207 66.6405C33.6808 67.9387 26.9162 67.2724 20.7687 64.726C14.6211 62.1796 9.36674 57.8674 5.66995 52.3348C1.97316 46.8022 0 40.2975 0 33.6435C0 24.7207 3.54457 16.1633 9.85395 9.85395C16.1633 3.54457 24.7207 0 33.6435 0V0Z" fill="#834EFB"/>
<path d="M43.4816 32.415H34.1441V23.0775C34.1441 22.6 33.7571 22.2129 33.2796 22.2129C32.802 22.2129 32.415 22.6 32.415 23.0775V32.415H23.0775C22.6 32.415 22.2129 32.802 22.2129 33.2796C22.2129 33.7571 22.6 34.1441 23.0775 34.1441H32.415V43.4816C32.415 43.9592 32.802 44.3462 33.2796 44.3462C33.7571 44.3462 34.1441 43.9592 34.1441 43.4816V34.1441H43.4816C43.9592 34.1441 44.3462 33.7571 44.3462 33.2796C44.3462 32.802 43.9592 32.415 43.4816 32.415Z" fill="#D9C5FA"/>
</svg>
