<svg width="48" height="48" viewBox="0 0 48 48" fill="none" xmlns="http://www.w3.org/2000/svg">
<path d="M15.2023 37.02V44H13.8023V41.03H10.8123V44H9.41234V37.02H10.8123V39.89H13.8023V37.02H15.2023ZM19.1603 44.09C18.627 44.09 18.147 43.9733 17.7203 43.74C17.2936 43.5 16.957 43.1633 16.7103 42.73C16.4703 42.2967 16.3503 41.7967 16.3503 41.23C16.3503 40.6633 16.4736 40.1633 16.7203 39.73C16.9736 39.2967 17.317 38.9633 17.7503 38.73C18.1836 38.49 18.667 38.37 19.2003 38.37C19.7336 38.37 20.217 38.49 20.6503 38.73C21.0836 38.9633 21.4236 39.2967 21.6703 39.73C21.9236 40.1633 22.0503 40.6633 22.0503 41.23C22.0503 41.7967 21.9203 42.2967 21.6603 42.73C21.407 43.1633 21.0603 43.5 20.6203 43.74C20.187 43.9733 19.7003 44.09 19.1603 44.09ZM19.1603 42.87C19.4136 42.87 19.6503 42.81 19.8703 42.69C20.097 42.5633 20.277 42.3767 20.4103 42.13C20.5436 41.8833 20.6103 41.5833 20.6103 41.23C20.6103 40.7033 20.4703 40.3 20.1903 40.02C19.917 39.7333 19.5803 39.59 19.1803 39.59C18.7803 39.59 18.4436 39.7333 18.1703 40.02C17.9036 40.3 17.7703 40.7033 17.7703 41.23C17.7703 41.7567 17.9003 42.1633 18.1603 42.45C18.427 42.73 18.7603 42.87 19.1603 42.87ZM30.0773 38.38C30.7573 38.38 31.3039 38.59 31.7173 39.01C32.1373 39.4233 32.3473 40.0033 32.3473 40.75V44H30.9473V40.94C30.9473 40.5067 30.8373 40.1767 30.6173 39.95C30.3973 39.7167 30.0973 39.6 29.7173 39.6C29.3373 39.6 29.0339 39.7167 28.8073 39.95C28.5873 40.1767 28.4773 40.5067 28.4773 40.94V44H27.0773V40.94C27.0773 40.5067 26.9673 40.1767 26.7473 39.95C26.5273 39.7167 26.2273 39.6 25.8473 39.6C25.4606 39.6 25.1539 39.7167 24.9273 39.95C24.7073 40.1767 24.5973 40.5067 24.5973 40.94V44H23.1973V38.46H24.5973V39.13C24.7773 38.8967 25.0073 38.7133 25.2873 38.58C25.5739 38.4467 25.8873 38.38 26.2273 38.38C26.6606 38.38 27.0473 38.4733 27.3873 38.66C27.7273 38.84 27.9906 39.1 28.1773 39.44C28.3573 39.12 28.6173 38.8633 28.9573 38.67C29.3039 38.4767 29.6773 38.38 30.0773 38.38ZM38.9458 41.11C38.9458 41.31 38.9324 41.49 38.9058 41.65H34.8558C34.8891 42.05 35.0291 42.3633 35.2758 42.59C35.5224 42.8167 35.8258 42.93 36.1858 42.93C36.7058 42.93 37.0758 42.7067 37.2958 42.26H38.8058C38.6458 42.7933 38.3391 43.2333 37.8858 43.58C37.4324 43.92 36.8758 44.09 36.2158 44.09C35.6824 44.09 35.2024 43.9733 34.7758 43.74C34.3558 43.5 34.0258 43.1633 33.7858 42.73C33.5524 42.2967 33.4358 41.7967 33.4358 41.23C33.4358 40.6567 33.5524 40.1533 33.7858 39.72C34.0191 39.2867 34.3458 38.9533 34.7658 38.72C35.1858 38.4867 35.6691 38.37 36.2158 38.37C36.7424 38.37 37.2124 38.4833 37.6258 38.71C38.0458 38.9367 38.3691 39.26 38.5958 39.68C38.8291 40.0933 38.9458 40.57 38.9458 41.11ZM37.4958 40.71C37.4891 40.35 37.3591 40.0633 37.1058 39.85C36.8524 39.63 36.5424 39.52 36.1758 39.52C35.8291 39.52 35.5358 39.6267 35.2958 39.84C35.0624 40.0467 34.9191 40.3367 34.8658 40.71H37.4958Z" fill="#834EFB"/>
<path d="M21 16.0735H20.25V16.8235V25.25H14.25V13.7647V13.0147H13.5H10.9266L24 1.01792L37.0734 13.0147H34.5H33.75V13.7647V25.25H27.75V16.8235V16.0735H27H21Z" stroke="#834EFB" stroke-width="1.5"/>
</svg>
